<svg width="48" height="48" viewBox="0 0 48 48" fill="none" xmlns="http://www.w3.org/2000/svg">
<path fill-rule="evenodd" clip-rule="evenodd" d="M30.5338 25.4545H25.4429V30.5455C25.4429 30.9312 25.2897 31.3012 25.0169 31.574C24.7441 31.8468 24.3741 32 23.9884 32C23.6026 32 23.2326 31.8468 22.9598 31.574C22.6871 31.3012 22.5338 30.9312 22.5338 30.5455V25.4545H17.4429C17.0571 25.4545 16.6872 25.3013 16.4144 25.0285C16.1416 24.7557 15.9884 24.3858 15.9884 24C15.9884 23.6142 16.1416 23.2443 16.4144 22.9715C16.6872 22.6987 17.0571 22.5455 17.4429 22.5455H22.5338V17.4545C22.5338 17.0688 22.6871 16.6988 22.9598 16.426C23.2326 16.1532 23.6026 16 23.9884 16C24.3741 16 24.7441 16.1532 25.0169 16.426C25.2897 16.6988 25.4429 17.0688 25.4429 17.4545V22.5455H30.5338C30.9196 22.5455 31.2896 22.6987 31.5623 22.9715C31.8351 23.2443 31.9884 23.6142 31.9884 24C31.9884 24.3858 31.8351 24.7557 31.5623 25.0285C31.2896 25.3013 30.9196 25.4545 30.5338 25.4545ZM24 8C15.1636 8 8 15.1636 8 24C8 32.8364 15.1636 40 24 40C32.8364 40 40 32.8364 40 24C40 15.1636 32.8364 8 24 8Z" fill="#B3B3B3"/>
</svg>
