<svg width="60" height="60" viewBox="0 0 60 60" fill="none" xmlns="http://www.w3.org/2000/svg">
<circle cx="30" cy="30" r="30" fill="#373737"/>
<g clip-path="url(#clip0_687_11139)">
<path d="M25.2613 21.2505C25.9889 21.2505 26.7165 21.3199 27.4095 21.4587C27.9985 21.5975 28.5529 21.8405 29.0726 22.1875C29.523 22.5345 29.9041 22.9856 30.1467 23.5062C30.4239 24.1655 30.5625 24.8596 30.5278 25.5536C30.5625 26.3171 30.3546 27.0805 29.9734 27.7399C29.5577 28.3645 28.9686 28.8503 28.3103 29.1627C29.2458 29.4056 30.0427 29.9955 30.5625 30.759C31.0822 31.5918 31.3247 32.5635 31.3247 33.5351C31.3247 34.3333 31.1861 35.0967 30.8397 35.7908C30.5278 36.4154 30.0774 36.936 29.5577 37.3871C29.0033 37.8035 28.345 38.1159 27.6866 38.2894C26.9937 38.4976 26.2661 38.567 25.5384 38.567H17.5V21.2158H25.2613V21.2505ZM24.7762 28.2604C25.3305 28.2951 25.9196 28.1216 26.37 27.7746C26.8204 27.3928 27.063 26.8029 26.9937 26.1783C26.9937 25.8312 26.9244 25.4842 26.7858 25.1719C26.6472 24.929 26.4739 24.7208 26.2314 24.5819C25.9889 24.4431 25.7117 24.3043 25.4345 24.2696C25.1227 24.2002 24.8108 24.2002 24.499 24.2002H21.1034V28.2604H24.7762ZM24.9841 35.6867C25.3305 35.6867 25.677 35.652 25.9889 35.5826C26.3007 35.5132 26.5779 35.3744 26.8551 35.2009C27.0976 35.0273 27.3055 34.7844 27.4441 34.5068C27.6173 34.1598 27.6866 33.7781 27.652 33.3963C27.7213 32.6676 27.4441 31.9735 26.9244 31.4877C26.37 31.0713 25.7117 30.8978 25.0187 30.9325H21.1034V35.7214H24.9841V35.6867Z" fill="white"/>
<path d="M36.4526 35.6176C37.0416 36.1381 37.8039 36.4157 38.5661 36.381C39.1898 36.381 39.7788 36.2075 40.2639 35.8605C40.6797 35.5829 40.9569 35.2012 41.1301 34.75H44.0059C43.6941 36.034 42.9318 37.1792 41.8924 37.9773C40.8876 38.6714 39.6749 38.9837 38.4275 38.949C37.5613 38.949 36.6951 38.8102 35.8636 38.4632C35.1359 38.1509 34.4776 37.6997 33.9579 37.1098C33.4382 36.4851 33.0224 35.7911 32.7452 35.0277C32.4334 34.1601 32.2948 33.2578 32.3294 32.3556C32.3294 31.4533 32.468 30.5858 32.7798 29.7182C33.6114 27.289 35.8982 25.658 38.4622 25.6927C39.3977 25.658 40.2986 25.9009 41.1301 26.3174C41.8577 26.7338 42.5161 27.289 43.0011 27.9831C43.4862 28.7118 43.8673 29.51 44.0406 30.3775C44.2485 31.2798 44.3178 32.2515 44.2831 33.1884H35.6903C35.5864 34.056 35.8636 34.9235 36.4526 35.6176ZM40.1946 28.9895C39.7095 28.5036 39.0512 28.2607 38.3582 28.2954C37.9078 28.2954 37.4574 28.3648 37.0763 28.573C36.7644 28.7465 36.4872 28.9895 36.2447 29.2671C36.0368 29.5447 35.8982 29.8223 35.7943 30.1693C35.725 30.4469 35.6557 30.7246 35.6557 31.0022H40.9915C40.9222 30.2734 40.645 29.5794 40.1946 28.9895Z" fill="white"/>
<path d="M41.6154 22.3955H34.9629V24.0959H41.6154V22.3955Z" fill="white"/>
</g>
<defs>
<clipPath id="clip0_687_11139">
<rect width="26.7833" height="17.6982" fill="white" transform="translate(17.5 21.25)"/>
</clipPath>
</defs>
</svg>
