<svg width="32" height="32" viewBox="0 0 32 32" fill="none" xmlns="http://www.w3.org/2000/svg">
<path d="M15.9844 9C12.5051 9 8.93608 11.1928 6.12638 15.5785C6.04618 15.7051 6.00223 15.8547 6.00008 16.0085C5.99794 16.1622 6.03769 16.3132 6.11432 16.4424C8.27316 20.1222 11.7944 23 15.9844 23C20.1289 23 23.7225 20.1135 25.8854 16.4253C25.9602 16.2987 26 16.1513 26 16.0007C26 15.8501 25.9602 15.7027 25.8854 15.5761C23.7176 11.9303 20.0977 9 15.9844 9Z" stroke="#B3B3B3" stroke-width="1.6" stroke-linecap="round" stroke-linejoin="round"/>
<path d="M16 19C17.6569 19 19 17.6569 19 16C19 14.3431 17.6569 13 16 13C14.3431 13 13 14.3431 13 16C13 17.6569 14.3431 19 16 19Z" stroke="#B3B3B3" stroke-width="1.6" stroke-miterlimit="10"/>
</svg>
