<svg width="111" height="76" viewBox="0 0 111 76" fill="none" xmlns="http://www.w3.org/2000/svg">
<g filter="url(#filter0_i_358_4981)">
<path fill-rule="evenodd" clip-rule="evenodd" d="M65.6306 14.3309V31.1155V71.0624C65.6306 71.3736 65.2762 71.6329 64.844 71.6329H49.3626H18.2789H2.79755C2.36535 71.6329 2.01095 71.3822 2.01095 71.0624V70.9154V56.6085V52.3208V40.7024C2.01095 40.3912 2.36535 40.1318 2.79755 40.1318H18.2789H44.6603C45.1011 40.1318 45.4556 40.3912 45.4556 40.7197V46.33C45.4728 46.7363 45.5247 49.5199 43.3464 51.4304C42.0498 52.5715 40.6063 52.8308 39.9839 52.9086H19.0655V55.891H40.347C41.1854 55.891 43.3724 55.77 45.3691 54.2399C48.8786 51.5601 48.6106 47.0216 48.5847 46.6326V0.772792C48.5847 0.461585 48.9391 0.202246 49.3713 0.202246H49.3951C49.4487 0.155521 49.5092 0.129068 49.5729 0.129068L70.3367 0.129069C70.5554 0.129069 70.7268 0.424192 70.7268 0.784097V13.6759C70.7268 14.0358 70.5495 14.3309 70.3367 14.3309H65.6306ZM27.5902 15.5448V33.3009C27.5902 33.7331 27.9446 34.0875 28.3768 34.0875H41.3773C41.8095 34.0875 42.1639 33.7331 42.1639 33.3009V1.54914C42.1639 1.11691 41.8095 0.762482 41.3773 0.762482H1.2866C0.854402 0.762482 0.5 1.11691 0.5 1.54914V13.9801C0.5 14.4124 0.854402 14.7668 1.2866 14.7668H26.8122C27.2444 14.7668 27.5988 15.1212 27.5988 15.5535L27.5902 15.5448Z" fill="#E1FF29"/>
<path d="M109.863 22.2357L98.2091 19.2703L103.033 0.284553C103.042 0.230308 103.033 0.176064 103.033 0.130859H85.2545L78.705 25.852C78.6237 26.1594 78.9037 26.503 79.3283 26.6114L90.982 29.5768L86.2573 48.1738H104.081L110.486 22.9951C110.567 22.6877 110.287 22.3442 109.863 22.2357Z" fill="#E1FF29"/>
<path d="M95.2726 72.3726C99.9328 70.4409 102.146 65.0941 100.215 60.4303C98.2851 55.7666 92.9424 53.5518 88.2823 55.4836C83.6221 57.4154 81.4091 62.7622 83.3394 67.426C85.2697 72.0897 90.6124 74.3044 95.2726 72.3726Z" fill="#E1FF29"/>
</g>
<defs>
<filter id="filter0_i_358_4981" x="0.5" y="0.128906" width="110" height="74.2294" filterUnits="userSpaceOnUse" color-interpolation-filters="sRGB">
<feFlood flood-opacity="0" result="BackgroundImageFix"/>
<feBlend mode="normal" in="SourceGraphic" in2="BackgroundImageFix" result="shape"/>
<feColorMatrix in="SourceAlpha" type="matrix" values="0 0 0 0 0 0 0 0 0 0 0 0 0 0 0 0 0 0 127 0" result="hardAlpha"/>
<feOffset dy="1.28802"/>
<feGaussianBlur stdDeviation="0.644012"/>
<feComposite in2="hardAlpha" operator="arithmetic" k2="-1" k3="1"/>
<feColorMatrix type="matrix" values="0 0 0 0 0 0 0 0 0 0 0 0 0 0 0 0 0 0 0.25 0"/>
<feBlend mode="normal" in2="shape" result="effect1_innerShadow_358_4981"/>
</filter>
</defs>
</svg>
