<svg width="110" height="128" viewBox="0 0 110 128" fill="none" xmlns="http://www.w3.org/2000/svg">
<g id="Frame" clip-path="url(#clip0_2633_19506)">
<g id="Layer 1">
<path id="Vector" d="M67.5142 1.03012C68.3813 0.778044 69.3112 0.685615 70.1573 0.656206C78.3883 0.404126 86.4643 4.25674 92.1945 10.042C95.2691 13.1425 97.5311 15.9406 99.3406 21.2931C101.062 26.3851 101.716 33.6197 100.765 37.1951C100.715 37.3841 100.907 37.5396 101.079 37.4513C103.739 36.1279 107.144 36.5943 108.694 39.0478C111.66 43.7491 108.878 49.8999 106.512 54.2188C103.781 59.1932 100.099 63.5751 96.2577 67.7176C92.2867 72.003 88.1147 76.0993 83.7625 79.9897C79.9004 83.439 76.0677 87.258 71.2087 89.2662C69.6798 89.8964 66.4879 90.8081 65.424 88.9133C65.0219 88.1991 65.1852 87.2916 65.4994 86.5311C71.393 72.2635 78.0825 55.7271 78.0825 40.0184C78.3632 25.1667 74.4969 14.7096 66.0397 6.41201C66.0355 6.40781 66.0314 6.40361 66.0272 6.39521C64.9297 5.0886 64.071 3.40807 65.5245 2.07205C66.0774 1.56369 66.7728 1.23179 67.51 1.01332L67.5142 1.03012Z" fill="#FF0086"/>
</g>
<g id="Layer 3">
<path id="Vector_2" d="M22.011 7.17266C20.989 6.21896 19.3218 4.98377 17.0808 4.61826C10.9275 3.60574 5.92188 10.0085 5.18465 10.9538C-0.876526 18.7053 -1.79387 34.2417 6.65073 38.8674C12.36 41.9932 21.3701 39.6068 27.9005 32.5528L52.4803 66.9448C52.275 66.844 47.6715 64.6299 44.1949 67.0876C41.0323 69.327 41.2795 73.6963 41.3507 74.9567C41.8114 83.1493 51.1943 91.3082 57.222 89.3756C60.0829 88.4597 61.5783 86.1364 62.1564 85.1911C70.8984 70.8604 85.7728 28.1666 64.5398 8.87419C60.5563 5.25686 56.0617 3.27384 55.647 3.09318C44.5928 -1.72573 33.9156 1.5723 30.8996 2.61843C26.9119 4.00067 23.9044 5.84084 22.0068 7.17266H22.011Z" fill="#FF0086"/>
</g>
<g id="Layer 4">
<path id="Vector_3" d="M92.3563 120.935C85.7213 127.271 75.7519 127.296 64.8318 127.296C53.9116 127.296 43.8166 127.271 37.0769 120.847C31.1078 115.154 29.7632 105.714 33.8892 98.5294C37.8141 91.698 45.3707 89.883 52.5796 91.8787C55.872 92.7904 59.1308 94.0465 62.5447 94.139C68.4844 94.2944 73.955 91.3829 79.8695 91.2947C87.3256 91.1812 94.1784 95.6977 96.9221 102.672C99.4019 108.961 97.2949 116.23 92.3563 120.939V120.935Z" fill="#FF0086"/>
</g>
</g>
<defs>
<clipPath id="clip0_2633_19506">
<rect width="109.512" height="127.09" fill="white" transform="translate(0.476562 0.542969)"/>
</clipPath>
</defs>
</svg>
