<svg width="60" height="60" viewBox="0 0 60 60" fill="none" xmlns="http://www.w3.org/2000/svg">
<circle cx="30" cy="30" r="29.5" stroke="#CCCACA"/>
<g clip-path="url(#clip0_687_11138)">
<path fill-rule="evenodd" clip-rule="evenodd" d="M34.5847 13.8044L15.8118 15.2062C14.2926 15.314 13.75 16.3384 13.75 17.5245V38.0117C13.75 38.9282 14.0755 39.7369 14.8894 40.7613L19.2842 46.4762C19.9896 47.3927 20.6949 47.6083 22.0513 47.5005L43.8627 46.2066C45.7074 46.0988 46.25 45.2361 46.25 43.7805V20.7054C46.25 19.9506 45.9787 19.7349 45.0563 19.088C45.0021 19.0341 44.9478 19.0341 44.8936 18.9802L38.9253 14.8288C37.5146 13.7505 36.9178 13.6427 34.5847 13.8044ZM22.5396 20.328C20.7492 20.4358 20.3694 20.4897 19.3385 19.6271L16.7884 17.6323C16.5171 17.3627 16.6256 17.0393 17.331 16.9853L35.3986 15.6914C36.9178 15.5836 37.6774 16.0688 38.2742 16.554L41.3669 18.7645C41.5296 18.8184 41.8552 19.1958 41.4211 19.1958L22.7567 20.328H22.5396ZM20.4779 43.5648V23.9941C20.4779 23.1315 20.7492 22.7541 21.5088 22.7002L42.9403 21.4602C43.6457 21.4063 43.9712 21.8376 43.9712 22.7002V42.1091C43.9712 42.9718 43.8084 43.6726 42.669 43.7266L22.1599 44.9127C21.0205 45.0205 20.4779 44.5892 20.4779 43.5648ZM40.7158 25.0724C40.8243 25.6655 40.7158 26.2585 40.1189 26.3124L39.1423 26.5281V40.977C38.2742 41.4622 37.5146 41.6778 36.8635 41.6778C35.8326 41.6778 35.5614 41.3544 34.7475 40.3839L28.2366 30.2481V40.0065L30.2984 40.4917C30.2984 40.4917 30.2984 41.6778 28.6707 41.6778L24.1131 41.9474C24.0046 41.6778 24.1131 41.0309 24.5472 40.923L25.7408 40.5996V27.6603L24.1131 27.4985C24.0046 26.9055 24.3301 26.0429 25.2525 25.9889L30.1356 25.6655L36.8635 35.9091V26.8516L35.1273 26.6359C35.0188 25.935 35.5071 25.3959 36.1582 25.342L40.7158 25.0724Z" fill="#CCCACA"/>
</g>
<defs>
<clipPath id="clip0_687_11138">
<rect width="32.5" height="33.75" fill="white" transform="translate(13.75 13.75)"/>
</clipPath>
</defs>
</svg>
