<svg width="120" height="120" viewBox="0 0 120 120" fill="none" xmlns="http://www.w3.org/2000/svg">
<path d="M77.3432 84.656C78.3833 84.9467 79.8596 85.3605 81.2799 86.5011C86.6146 90.7394 86.9725 101.699 82.0069 107.972C80.0385 110.455 77.757 111.551 74.3683 113.183C72.042 114.302 66.3942 116.717 58.3082 116.997C53.5439 117.164 42.3712 117.545 35.5155 110.477C35.1688 110.119 33.8379 108.71 32.6412 106.53C30.259 102.168 28.5815 95.0448 31.7129 92.4839C32.2162 92.0813 33.0662 91.5781 34.5089 91.4551C34.5089 90.4151 34.6767 87.9325 36.4102 85.8078C37.8082 84.108 39.5528 83.4594 40.0897 83.2581C46.8783 80.8203 55.4004 88.4805 62.3344 87.8095C64.0567 87.6418 65.4323 86.6689 65.4547 86.6577C66.0475 86.2439 71.2144 82.9115 77.3432 84.6336V84.656ZM63.5311 104.002C64.6271 103.834 66.3942 103.521 67.6691 102.045C68.6198 100.938 68.8993 99.6521 68.9888 98.9923C69.1678 97.6056 68.8211 96.5097 68.6086 95.9841C71.2927 97.6616 73.686 98.2542 74.3683 97.4603C75.14 96.5656 73.9097 93.7029 71.9861 92.3721C71.1249 91.7794 69.8835 91.3321 69.8052 91.4551C69.7605 91.5222 70.096 91.7459 70.3644 92.0031C71.5835 93.1213 72.2433 95.2125 71.6841 95.7381C71.1473 96.2413 69.4585 95.3355 68.877 95.0224C68.3737 94.754 67.9711 94.4633 67.6803 94.2173C68.273 96.0736 68.7651 98.4779 67.6468 99.4955C64.5712 102.302 51.9781 91.4439 49.8979 93.6693C49.0256 94.6087 50.5466 97.2702 51.0834 98.1983C53.7564 102.873 59.3595 104.662 63.5199 104.013L63.5311 104.002Z" fill="#C0C0C0" fill-opacity="0.44"/>
<path d="M89.2208 32.6432C86.9139 28.2595 75.1048 31.2453 73.4673 26.7498C72.2003 23.2496 78.1288 17.9266 80.5313 15.7795C86.1968 10.7025 90.1053 10.423 89.9977 8.48834C89.8184 5.25651 78.6428 1.61092 68.9851 3.53436C64.1921 4.4849 60.1163 6.73264 58.2637 7.76145C57.0326 8.4436 53.65 10.3894 50.1598 13.5206C44.315 18.7653 34.5378 30.6414 37.9204 35.5842C41.6018 40.9855 58.8374 35.1034 59.9968 38.2793C61.2279 41.6341 42.4026 47.0313 43.7413 54.0318C44.1716 56.2683 45.821 57.9793 45.821 57.9793C48.2235 60.4507 51.7495 60.7638 51.7017 61.021C51.5941 61.5019 39.1396 57.6997 36.0319 61.7479C35.4582 62.4971 35.3745 63.2911 35.3626 63.6154C35.2072 68.3122 43.4646 73.2054 47.7436 74.5697C55.3818 77.0051 60.8096 78.2933 61.7299 78.0585C65.3323 78.0585 62.994 74.2844 65.9223 73.6805C71.8628 72.4504 78.1101 77.7659 80.154 75.8984C80.9309 75.1827 81.2811 73.6805 80.4892 71.9232C78.3687 67.2177 73.6108 67.3098 71.7581 63.7648C67.5389 55.6685 92.9022 39.6324 89.2327 32.6543L89.2208 32.6432Z" fill="#C0C0C0" fill-opacity="0.44"/>
</svg>
