<svg width="44" height="44" viewBox="0 0 44 44" fill="none" xmlns="http://www.w3.org/2000/svg">
<path d="M20.2162 13.7505C20.6122 11.808 23.3878 11.808 23.7838 13.7505V13.7505C24.0415 15.0146 25.4959 15.617 26.5719 14.9054V14.9054C28.2255 13.8118 30.1882 15.7745 29.0946 17.4281V17.4281C28.383 18.5041 28.9854 19.9585 30.2495 20.2162V20.2162C32.192 20.6122 32.192 23.3878 30.2495 23.7838V23.7838C28.9854 24.0415 28.383 25.4959 29.0946 26.5719V26.5719C30.1882 28.2255 28.2255 30.1882 26.5719 29.0946V29.0946C25.4959 28.383 24.0415 28.9854 23.7838 30.2495V30.2495C23.3878 32.192 20.6122 32.192 20.2162 30.2495V30.2495C19.9585 28.9854 18.5041 28.383 17.4281 29.0946V29.0946C15.7745 30.1882 13.8118 28.2255 14.9054 26.5719V26.5719C15.617 25.4959 15.0146 24.0415 13.7505 23.7838V23.7838C11.808 23.3878 11.808 20.6122 13.7505 20.2162V20.2162C15.0146 19.9585 15.617 18.5041 14.9054 17.4281V17.4281C13.8118 15.7745 15.7745 13.8118 17.4281 14.9054V14.9054C18.5041 15.617 19.9585 15.0146 20.2162 13.7505V13.7505Z" stroke="#373737" stroke-width="1.6"/>
<circle cx="22.0003" cy="22.0003" r="2.84286" stroke="#373737" stroke-width="1.6"/>
</svg>
