<svg width="44" height="44" viewBox="0 0 44 44" fill="none" xmlns="http://www.w3.org/2000/svg">
<g clip-path="url(#clip0_360_5509)">
<path d="M19.7487 11.5678C20.2301 9.09386 23.7699 9.09386 24.2513 11.5678V11.5678C24.5652 13.1802 26.4227 13.9496 27.7848 13.0314V13.0314C29.8745 11.6225 32.3775 14.1255 30.9686 16.2152V16.2152C30.0504 17.5773 30.8198 19.4348 32.4322 19.7487V19.7487C34.9061 20.2301 34.9061 23.7699 32.4322 24.2513V24.2513C30.8198 24.5652 30.0504 26.4227 30.9686 27.7848V27.7848C32.3775 29.8745 29.8745 32.3775 27.7848 30.9686V30.9686C26.4227 30.0504 24.5652 30.8198 24.2513 32.4322V32.4322C23.7699 34.9061 20.2301 34.9061 19.7487 32.4322V32.4322C19.4348 30.8198 17.5773 30.0504 16.2152 30.9686V30.9686C14.1255 32.3775 11.6225 29.8745 13.0314 27.7848V27.7848C13.9496 26.4227 13.1802 24.5652 11.5678 24.2513V24.2513C9.09386 23.7699 9.09386 20.2301 11.5678 19.7487V19.7487C13.1802 19.4348 13.9496 17.5773 13.0314 16.2152V16.2152C11.6225 14.1255 14.1255 11.6225 16.2152 13.0314V13.0314C17.5773 13.9496 19.4348 13.1802 19.7487 11.5678V11.5678Z" stroke="#373737" stroke-width="1.6"/>
<circle cx="22" cy="22" r="4.2" stroke="#373737" stroke-width="1.6"/>
</g>
<defs>
<clipPath id="clip0_360_5509">
<rect width="44" height="44" fill="white"/>
</clipPath>
</defs>
</svg>
