<svg width="40" height="40" viewBox="0 0 40 40" fill="none" xmlns="http://www.w3.org/2000/svg">
<circle cx="20" cy="20" r="20" fill="white"/>
<path fill-rule="evenodd" clip-rule="evenodd" d="M15.9955 10.75H19.9673H20.0329H24.0047C24.5159 10.75 24.9682 11.0813 25.1224 11.5687L25.6878 13.3562C25.8035 13.7218 26.1427 13.9702 26.5261 13.9702H29.9283C30.9965 13.9702 31.8625 14.8363 31.8625 15.9045V27.3157C31.8625 28.384 30.9965 29.25 29.9282 29.25H20.0329H19.9673H10.072C9.0037 29.25 8.1377 28.384 8.1377 27.3157V15.9045C8.1377 14.8363 9.0037 13.9702 10.072 13.9702H13.4741C13.8575 13.9702 14.1968 13.7218 14.3124 13.3562L14.8778 11.5687C15.032 11.0813 15.4843 10.75 15.9955 10.75ZM19.9671 26.9168C23.2337 26.9168 25.8818 24.2687 25.8818 21.002C25.8818 17.7354 23.2337 15.0873 19.9671 15.0873C16.7005 15.0873 14.0523 17.7354 14.0523 21.002C14.0523 24.2687 16.7005 26.9168 19.9671 26.9168Z" fill="#373737"/>
<circle cx="19.9675" cy="21.002" r="3.54885" fill="#373737"/>
</svg>
