<svg width="44" height="44" viewBox="0 0 44 44" fill="none" xmlns="http://www.w3.org/2000/svg">
<path d="M20.3629 12.9989C18.9065 12.9989 17.4828 13.4308 16.2719 14.2399C15.0609 15.049 14.1171 16.199 13.5598 17.5446C13.0025 18.8901 12.8566 20.3707 13.1408 21.7991C13.4249 23.2275 14.1262 24.5395 15.156 25.5693C16.1858 26.5992 17.4979 27.3005 18.9263 27.5846C20.3547 27.8687 21.8353 27.7229 23.1808 27.1656C24.5263 26.6082 25.6763 25.6644 26.4855 24.4535C27.2946 23.2425 27.7265 21.8189 27.7265 20.3625C27.7263 18.4096 26.9505 16.5367 25.5696 15.1558C24.1887 13.7749 22.3158 12.999 20.3629 12.9989V12.9989Z" stroke="#373737" stroke-width="1.6" stroke-miterlimit="10"/>
<path d="M25.856 25.8563L31.0007 31.0011" stroke="#373737" stroke-width="1.6" stroke-miterlimit="10" stroke-linecap="round"/>
</svg>
