<svg width="44" height="44" viewBox="0 0 44 44" fill="none" xmlns="http://www.w3.org/2000/svg">
<path d="M20.3626 12.999C18.9062 12.999 17.4826 13.4309 16.2716 14.24C15.0607 15.0491 14.1169 16.1992 13.5595 17.5447C13.0022 18.8902 12.8564 20.3708 13.1405 21.7992C13.4246 23.2276 14.126 24.5396 15.1558 25.5695C16.1856 26.5993 17.4977 27.3006 18.9261 27.5847C20.3545 27.8688 21.835 27.723 23.1805 27.1657C24.5261 26.6084 25.6761 25.6645 26.4852 24.4536C27.2943 23.2427 27.7262 21.819 27.7262 20.3626C27.7261 18.4097 26.9502 16.5368 25.5693 15.1559C24.1884 13.775 22.3155 12.9991 20.3626 12.999V12.999Z" stroke="#373737" stroke-width="1.6" stroke-miterlimit="10"/>
<path d="M25.8555 25.8564L31.0002 31.0012" stroke="#373737" stroke-width="1.6" stroke-miterlimit="10" stroke-linecap="round"/>
</svg>
