<svg width="32" height="32" viewBox="0 0 32 32" fill="none" xmlns="http://www.w3.org/2000/svg">
<path d="M13.0091 19.75C12.9106 19.7505 12.8129 19.7313 12.7219 19.6935C12.6309 19.6557 12.5484 19.6001 12.4791 19.53C12.3387 19.3894 12.2598 19.1988 12.2598 19C12.2598 18.8013 12.3387 18.6107 12.4791 18.47L18.4791 12.47C18.6213 12.3376 18.8093 12.2654 19.0036 12.2689C19.1979 12.2723 19.3833 12.351 19.5207 12.4884C19.6581 12.6258 19.7369 12.8112 19.7403 13.0055C19.7437 13.1998 19.6716 13.3879 19.5391 13.53L13.5391 19.53C13.4699 19.6001 13.3873 19.6557 13.2963 19.6935C13.2053 19.7313 13.1076 19.7505 13.0091 19.75Z" fill="#373737"/>
<path d="M18.9911 19.75C18.8925 19.7505 18.7949 19.7313 18.7039 19.6935C18.6129 19.6557 18.5303 19.6001 18.4611 19.53L12.4611 13.53C12.3286 13.3879 12.2565 13.1998 12.2599 13.0055C12.2633 12.8112 12.342 12.6258 12.4794 12.4884C12.6168 12.351 12.8022 12.2723 12.9965 12.2689C13.1908 12.2654 13.3789 12.3376 13.5211 12.47L19.5211 18.47C19.6615 18.6107 19.7404 18.8013 19.7404 19C19.7404 19.1988 19.6615 19.3894 19.5211 19.53C19.4518 19.6001 19.3693 19.6557 19.2783 19.6935C19.1872 19.7313 19.0896 19.7505 18.9911 19.75Z" fill="#373737"/>
</svg>
