<svg width="44" height="44" viewBox="0 0 44 44" fill="none" xmlns="http://www.w3.org/2000/svg">
<g clip-path="url(#clip0_587_8267)">
<path fill-rule="evenodd" clip-rule="evenodd" d="M25.1553 24.0948C25.2249 24.1644 25.2801 24.2471 25.3178 24.338C25.3555 24.429 25.3749 24.5265 25.3749 24.625C25.3749 24.7235 25.3555 24.821 25.3178 24.912C25.2801 25.0029 25.2249 25.0856 25.1553 25.1553C25.0856 25.2249 25.0029 25.2801 24.912 25.3178C24.821 25.3555 24.7235 25.3749 24.625 25.3749C24.5265 25.3749 24.429 25.3555 24.338 25.3178C24.2471 25.2801 24.1644 25.2249 24.0948 25.1553L22 23.0605L19.9052 25.1553C19.8358 25.2251 19.7531 25.2806 19.6621 25.3184C19.5711 25.3563 19.4736 25.3758 19.375 25.3758C19.2764 25.3758 19.1789 25.3563 19.0879 25.3184C18.9969 25.2806 18.9142 25.2251 18.8448 25.1553C18.775 25.0857 18.7197 25.003 18.682 24.912C18.6443 24.821 18.6248 24.7235 18.6248 24.625C18.6248 24.5265 18.6443 24.429 18.682 24.338C18.7197 24.247 18.775 24.1643 18.8448 24.0948L20.9395 22L18.8448 19.9052C18.7751 19.8356 18.7199 19.7529 18.6822 19.662C18.6445 19.571 18.6251 19.4735 18.6251 19.375C18.6251 19.2765 18.6445 19.179 18.6822 19.088C18.7199 18.9971 18.7751 18.9144 18.8447 18.8447C18.9144 18.7751 18.9971 18.7199 19.088 18.6822C19.179 18.6445 19.2765 18.6251 19.375 18.6251C19.4735 18.6251 19.571 18.6445 19.662 18.6822C19.7529 18.7199 19.8356 18.7751 19.9052 18.8448L22 20.9395L24.0948 18.8448C24.1644 18.7751 24.2471 18.7199 24.338 18.6822C24.429 18.6445 24.5265 18.6251 24.625 18.6251C24.7235 18.6251 24.821 18.6445 24.912 18.6822C25.0029 18.7199 25.0856 18.7751 25.1553 18.8448C25.2249 18.9144 25.2801 18.9971 25.3178 19.088C25.3555 19.179 25.3749 19.2765 25.3749 19.375C25.3749 19.4735 25.3555 19.571 25.3178 19.662C25.2801 19.7529 25.2249 19.8356 25.1553 19.9052L23.0605 22L25.1553 24.0948ZM22 13.75C17.4438 13.75 13.75 17.4438 13.75 22C13.75 26.5562 17.4438 30.25 22 30.25C26.5562 30.25 30.25 26.5562 30.25 22C30.25 17.4438 26.5562 13.75 22 13.75Z" fill="#CCCACA"/>
</g>
<defs>
<clipPath id="clip0_587_8267">
<rect width="18" height="18" fill="white" transform="translate(13 13)"/>
</clipPath>
</defs>
</svg>
