<svg width="44" height="44" viewBox="0 0 44 44" fill="none" xmlns="http://www.w3.org/2000/svg">
<path d="M22.332 24.332C23.4366 24.332 24.332 23.4366 24.332 22.332C24.332 21.2275 23.4366 20.332 22.332 20.332C21.2275 20.332 20.332 21.2275 20.332 22.332C20.332 23.4366 21.2275 24.332 22.332 24.332Z" fill="#373737"/>
<path d="M22.332 32.665C23.4366 32.665 24.332 31.7696 24.332 30.665C24.332 29.5605 23.4366 28.665 22.332 28.665C21.2275 28.665 20.332 29.5605 20.332 30.665C20.332 31.7696 21.2275 32.665 22.332 32.665Z" fill="#373737"/>
<path d="M22.332 15.9985C23.4366 15.9985 24.332 15.1031 24.332 13.9985C24.332 12.894 23.4366 11.9985 22.332 11.9985C21.2275 11.9985 20.332 12.894 20.332 13.9985C20.332 15.1031 21.2275 15.9985 22.332 15.9985Z" fill="#373737"/>
</svg>
