<svg width="44" height="44" viewBox="0 0 44 44" fill="none" xmlns="http://www.w3.org/2000/svg">
<path d="M22 22.999C23.1046 22.999 24 22.1036 24 20.999C24 19.8945 23.1046 18.999 22 18.999C20.8954 18.999 20 19.8945 20 20.999C20 22.1036 20.8954 22.999 22 22.999Z" fill="#373737"/>
<path d="M22 32.999C23.1046 32.999 24 32.1036 24 30.999C24 29.8945 23.1046 28.999 22 28.999C20.8954 28.999 20 29.8945 20 30.999C20 32.1036 20.8954 32.999 22 32.999Z" fill="#373737"/>
<path d="M22 12.999C23.1046 12.999 24 12.1036 24 10.999C24 9.89445 23.1046 8.99902 22 8.99902C20.8954 8.99902 20 9.89445 20 10.999C20 12.1036 20.8954 12.999 22 12.999Z" fill="#373737"/>
</svg>
