<svg width="44" height="44" viewBox="0 0 44 44" fill="none" xmlns="http://www.w3.org/2000/svg">
<circle cx="22" cy="22" r="15" fill="#F4F4F4"/>
<path d="M16.3231 27.677C16.4629 27.8167 16.6288 27.9127 16.821 27.9651C17.0189 28.0116 17.214 28.0116 17.4061 27.9651C17.6041 27.9127 17.7729 27.8196 17.9127 27.6857L22 23.5911L26.0961 27.677C26.2358 27.8225 26.3988 27.9185 26.5852 27.9651C26.7773 28.0116 26.9694 28.0116 27.1616 27.9651C27.3595 27.9127 27.5284 27.8138 27.6681 27.6682C27.8195 27.5286 27.9185 27.3627 27.9651 27.1706C28.0116 26.9727 28.0116 26.7777 27.9651 26.5857C27.9185 26.3936 27.8224 26.2277 27.6769 26.088L23.5983 21.9935L27.6769 17.9076C27.8224 17.7679 27.9185 17.602 27.9651 17.41C28.0116 17.2179 28.0116 17.0258 27.9651 16.8338C27.9185 16.6359 27.8195 16.4671 27.6681 16.3274C27.5284 16.1819 27.3595 16.0858 27.1616 16.0393C26.9694 15.9869 26.7773 15.9869 26.5852 16.0393C26.3988 16.0858 26.2358 16.179 26.0961 16.3187L22 20.4045L17.9127 16.3099C17.7729 16.1761 17.6041 16.0858 17.4061 16.0393C17.214 15.9869 17.0189 15.9869 16.821 16.0393C16.6288 16.0858 16.4629 16.179 16.3231 16.3187C16.1776 16.4642 16.0815 16.6359 16.0349 16.8338C15.9884 17.0258 15.9884 17.2179 16.0349 17.41C16.0815 17.602 16.1747 17.7679 16.3144 17.9076L20.4105 21.9935L16.3144 26.088C16.1747 26.2277 16.0815 26.3936 16.0349 26.5857C15.9884 26.7777 15.9884 26.9727 16.0349 27.1706C16.0815 27.3627 16.1776 27.5315 16.3231 27.677Z" fill="#373737"/>
</svg>
