<svg width="44" height="44" viewBox="0 0 44 44" fill="none" xmlns="http://www.w3.org/2000/svg">
<rect x="6" y="6" width="32" height="32" rx="16" fill="white"/>
<path fill-rule="evenodd" clip-rule="evenodd" d="M20 15.2305C20 14.9678 20.0519 14.7076 20.1524 14.4649C20.253 14.2223 20.4005 14.0018 20.5863 13.816C20.7721 13.6303 20.9926 13.483 21.2354 13.3826C21.4781 13.2821 21.7383 13.2304 22.001 13.2305C22.2637 13.2305 22.5238 13.2823 22.7665 13.3829C23.0092 13.4835 23.2297 13.6309 23.4154 13.8168C23.6011 14.0026 23.7484 14.2231 23.8489 14.4659C23.9494 14.7086 24.001 14.9688 24.001 15.2315C24.0008 15.762 23.79 16.2708 23.4147 16.6459C23.0394 17.021 22.5305 17.2316 22 17.2315C21.4694 17.2313 20.9606 17.0204 20.5856 16.6452C20.2105 16.2699 19.9998 15.761 20 15.2305ZM20 22.0015C20 21.471 20.2107 20.9623 20.5858 20.5873C20.9608 20.2122 21.4695 20.0015 22 20.0015C22.5304 20.0015 23.0391 20.2122 23.4142 20.5873C23.7893 20.9623 24 21.471 24 22.0015C24 22.5319 23.7893 23.0406 23.4142 23.4157C23.0391 23.7908 22.5304 24.0015 22 24.0015C21.4695 24.0015 20.9608 23.7908 20.5858 23.4157C20.2107 23.0406 20 22.5319 20 22.0015ZM20 28.7715C20 28.5088 20.0519 28.2486 20.1524 28.0059C20.253 27.7633 20.4005 27.5428 20.5863 27.357C20.7721 27.1713 20.9926 27.024 21.2354 26.9236C21.4781 26.8231 21.7383 26.7714 22.001 26.7715C22.2637 26.7715 22.5238 26.8233 22.7665 26.9239C23.0092 27.0245 23.2297 27.1719 23.4154 27.3578C23.6011 27.5436 23.7484 27.7641 23.8489 28.0069C23.9494 28.2496 24.001 28.5098 24.001 28.7725C24.0008 29.303 23.7899 29.8118 23.4147 30.1869C23.0394 30.562 22.5305 30.7726 22 30.7725C21.4694 30.7723 20.9606 30.5614 20.5856 30.1862C20.2105 29.8109 19.9998 29.302 20 28.7715Z" fill="#373737"/>
</svg>
