<svg width="60" height="60" viewBox="0 0 60 60" fill="none" xmlns="http://www.w3.org/2000/svg">
<circle cx="30" cy="30" r="29.5" stroke="#CCCACA"/>
<g clip-path="url(#clip0_687_11137)">
<path d="M23.2699 13.8636C21.5409 13.9452 20.3602 14.2211 19.328 14.6267C18.2597 15.0431 17.3543 15.6017 16.4534 16.5059C15.5525 17.41 14.9977 18.3161 14.5843 19.386C14.1842 20.4205 13.9132 21.6022 13.8368 23.3322C13.7604 25.0622 13.7435 25.6182 13.752 30.0311C13.7604 34.4439 13.7799 34.9971 13.8638 36.7306C13.9463 38.4593 14.2213 39.6397 14.6269 40.6722C15.0439 41.7405 15.6019 42.6456 16.5064 43.5469C17.4108 44.4481 18.3163 45.0016 19.3888 45.4156C20.4223 45.815 21.6043 46.0874 23.334 46.1631C25.0636 46.2388 25.6203 46.2564 30.0319 46.2479C34.4434 46.2395 34.9989 46.22 36.7321 46.1378C38.4653 46.0555 39.6395 45.7786 40.6724 45.375C41.7407 44.957 42.6464 44.4 43.547 43.4952C44.4476 42.5904 45.002 41.6836 45.4151 40.6131C45.8155 39.5796 46.0875 38.3976 46.1626 36.6692C46.2383 34.9347 46.2562 34.3809 46.2478 29.9687C46.2393 25.5565 46.2195 25.0033 46.1373 23.2704C46.055 21.5375 45.7798 20.3607 45.3745 19.3275C44.9569 18.2593 44.3995 17.3548 43.4953 16.4529C42.5912 15.551 41.6838 14.9969 40.6136 14.5848C39.5794 14.1847 38.398 13.9121 36.6684 13.8373C34.9387 13.7626 34.382 13.7434 29.9688 13.7518C25.5557 13.7603 25.0032 13.7791 23.2699 13.8636ZM23.4597 43.2397C21.8754 43.1708 21.0151 42.9076 20.4418 42.6872C19.6826 42.3947 19.1418 42.0411 18.5704 41.4753C17.9991 40.9095 17.6481 40.3667 17.3517 39.6092C17.1291 39.0359 16.8609 38.1766 16.7868 36.5922C16.7062 34.8798 16.6893 34.3656 16.6799 30.0272C16.6705 25.6888 16.6871 25.1753 16.7621 23.4622C16.8297 21.8791 17.0946 21.0179 17.3146 20.4449C17.6071 19.6847 17.9594 19.1449 18.5266 18.5739C19.0937 18.0028 19.6348 17.6512 20.393 17.3548C20.9657 17.1312 21.825 16.8653 23.4087 16.7899C25.1224 16.7087 25.6359 16.6924 29.9737 16.683C34.3115 16.6736 34.8263 16.6898 36.5407 16.7652C38.1237 16.8341 38.9853 17.0964 39.5576 17.3177C40.3172 17.6102 40.8576 17.9616 41.4287 18.5297C41.9997 19.0978 42.3517 19.6369 42.6481 20.3968C42.872 20.9678 43.1378 21.8268 43.2126 23.4115C43.2942 25.1252 43.3127 25.639 43.3205 29.9765C43.3283 34.3139 43.313 34.8291 43.2379 36.5415C43.1687 38.1259 42.9061 38.9865 42.6854 39.5604C42.3929 40.3193 42.0403 40.8604 41.4729 41.4311C40.9054 42.0018 40.3649 42.3535 39.6064 42.6499C39.0344 42.8731 38.1741 43.1396 36.5917 43.215C34.878 43.2956 34.3645 43.3125 30.0251 43.322C25.6857 43.3314 25.1738 43.3138 23.4601 43.2397M36.7071 21.3149C36.7077 21.7006 36.8227 22.0775 37.0375 22.3978C37.2524 22.7181 37.5574 22.9676 37.914 23.1145C38.2706 23.2615 38.6627 23.2994 39.0409 23.2235C39.4191 23.1476 39.7662 22.9612 40.0384 22.688C40.3107 22.4148 40.4958 22.0669 40.5703 21.6885C40.6448 21.3101 40.6055 20.918 40.4572 20.562C40.3089 20.2059 40.0584 19.9018 39.7372 19.6882C39.4161 19.4745 39.0389 19.3609 38.6532 19.3617C38.1361 19.3627 37.6406 19.5691 37.2757 19.9353C36.9107 20.3016 36.7062 20.7979 36.7071 21.3149ZM21.6563 30.0161C21.6654 34.6246 25.4081 38.3521 30.0156 38.3433C34.6232 38.3345 38.3532 34.5921 38.3444 29.9836C38.3356 25.3751 34.592 21.6467 29.9838 21.6558C25.3756 21.6649 21.6475 25.4083 21.6563 30.0161ZM24.5833 30.0103C24.5811 28.939 24.8967 27.8911 25.4902 26.9991C26.0836 26.1071 26.9282 25.4112 27.9172 24.9992C28.9062 24.5873 29.9951 24.4779 31.0463 24.6848C32.0974 24.8917 33.0636 25.4057 33.8227 26.1618C34.5817 26.9178 35.0995 27.882 35.3106 28.9323C35.5217 29.9826 35.4166 31.072 35.0086 32.0626C34.6005 33.0532 33.9079 33.9005 33.0183 34.4975C32.1287 35.0945 31.0821 35.4142 30.0108 35.4163C29.2994 35.4178 28.5947 35.2792 27.9369 35.0083C27.2792 34.7374 26.6812 34.3396 26.1772 33.8376C25.6732 33.3356 25.273 32.7392 24.9995 32.0825C24.726 31.4258 24.5846 30.7217 24.5833 30.0103Z" fill="#CCCACA"/>
</g>
<defs>
<clipPath id="clip0_687_11137">
<rect width="32.5" height="32.5" fill="white" transform="translate(13.75 13.75)"/>
</clipPath>
</defs>
</svg>
