<svg width="24" height="24" viewBox="0 0 24 24" fill="none" xmlns="http://www.w3.org/2000/svg">
<path d="M11.9883 6.75C9.37884 6.75 6.70206 8.39464 4.59478 11.6839C4.53463 11.7788 4.50167 11.891 4.50006 12.0063C4.49845 12.1217 4.52827 12.2349 4.58574 12.3318C6.20487 15.0917 8.84583 17.25 11.9883 17.25C15.0967 17.25 17.7919 15.0851 19.414 12.319C19.4702 12.224 19.5 12.1135 19.5 12.0005C19.5 11.8876 19.4702 11.7771 19.414 11.6821C17.7882 8.94771 15.0732 6.75 11.9883 6.75Z" stroke="#373737" stroke-width="1.2" stroke-linecap="round" stroke-linejoin="round"/>
<path d="M12 14.25C13.2426 14.25 14.25 13.2426 14.25 12C14.25 10.7574 13.2426 9.75 12 9.75C10.7574 9.75 9.75 10.7574 9.75 12C9.75 13.2426 10.7574 14.25 12 14.25Z" stroke="#373737" stroke-width="1.2" stroke-miterlimit="10"/>
</svg>
