<svg width="24" height="24" viewBox="0 0 24 24" fill="none" xmlns="http://www.w3.org/2000/svg">
<path d="M11.9998 12.3229C11.0428 12.3229 10.1073 12.0391 9.3116 11.5075C8.51588 10.9758 7.89569 10.2201 7.52946 9.33591C7.16323 8.45176 7.06741 7.47885 7.25411 6.54023C7.44081 5.60162 7.90166 4.73944 8.57836 4.06274C9.25507 3.38603 10.1172 2.92519 11.0559 2.73848C11.9945 2.55178 12.9674 2.6476 13.8515 3.01383C14.7357 3.38007 15.4914 4.00026 16.0231 4.79598C16.5548 5.5917 16.8386 6.52721 16.8386 7.48422C16.8386 8.76753 16.3288 9.99827 15.4213 10.9057C14.5139 11.8131 13.2832 12.3229 11.9998 12.3229ZM11.9998 4.58099C11.4256 4.58099 10.8643 4.75127 10.3869 5.07028C9.90947 5.38929 9.53735 5.84271 9.31762 6.3732C9.09788 6.9037 9.04038 7.48744 9.1524 8.05061C9.26443 8.61378 9.54093 9.13109 9.94696 9.53711C10.353 9.94313 10.8703 10.2196 11.4335 10.3317C11.9966 10.4437 12.5804 10.3862 13.1109 10.1665C13.6414 9.94671 14.0948 9.5746 14.4138 9.09717C14.7328 8.61973 14.9031 8.05842 14.9031 7.48422C14.9031 6.71424 14.5972 5.97579 14.0527 5.43133C13.5083 4.88687 12.7698 4.58099 11.9998 4.58099Z" fill="#B3B3B3"/>
<path d="M21.0323 21.3556C20.7766 21.3522 20.5324 21.2492 20.3517 21.0684C20.1709 20.8877 20.0679 20.6434 20.0645 20.3878C20.0645 17.8717 18.6968 16.1943 12 16.1943C5.30323 16.1943 3.93548 17.8717 3.93548 20.3878C3.93548 20.6445 3.83353 20.8906 3.65204 21.0721C3.47055 21.2536 3.2244 21.3556 2.96774 21.3556C2.71108 21.3556 2.46493 21.2536 2.28345 21.0721C2.10196 20.8906 2 20.6445 2 20.3878C2 14.2588 9.00645 14.2588 12 14.2588C14.9936 14.2588 22 14.2588 22 20.3878C21.9967 20.6434 21.8936 20.8877 21.7129 21.0684C21.5321 21.2492 21.2879 21.3522 21.0323 21.3556Z" fill="#B3B3B3"/>
</svg>
