<svg width="34" height="34" viewBox="0 0 34 34" fill="none" xmlns="http://www.w3.org/2000/svg">
<path d="M17 17.354C15.9493 17.354 14.9222 17.0424 14.0485 16.4587C13.1749 15.8749 12.494 15.0452 12.0919 14.0745C11.6898 13.1038 11.5846 12.0356 11.7896 11.0051C11.9946 9.97456 12.5005 9.02797 13.2435 8.285C13.9865 7.54203 14.9331 7.03607 15.9636 6.83108C16.9941 6.6261 18.0623 6.73131 19.033 7.1334C20.0037 7.53549 20.8334 8.2164 21.4172 9.09004C22.0009 9.96368 22.3125 10.9908 22.3125 12.0415C22.3125 13.4505 21.7528 14.8017 20.7565 15.798C19.7602 16.7943 18.409 17.354 17 17.354ZM17 8.85401C16.3696 8.85401 15.7533 9.04095 15.2291 9.3912C14.7049 9.74144 14.2964 10.2393 14.0551 10.8217C13.8139 11.4041 13.7508 12.045 13.8737 12.6634C13.9967 13.2817 14.3003 13.8496 14.7461 14.2954C15.1919 14.7412 15.7598 15.0448 16.3782 15.1678C16.9965 15.2907 17.6374 15.2276 18.2198 14.9864C18.8022 14.7451 19.3001 14.3366 19.6503 13.8124C20.0006 13.2882 20.1875 12.6719 20.1875 12.0415C20.1875 11.1961 19.8517 10.3854 19.2539 9.7876C18.6561 9.18983 17.8454 8.85401 17 8.85401Z" fill="#919196"/>
<path d="M26.9168 27.2707C26.6362 27.267 26.3681 27.1539 26.1696 26.9554C25.9711 26.7569 25.858 26.4888 25.8543 26.2082C25.8543 23.4457 24.3527 21.604 17.0002 21.604C9.64766 21.604 8.146 23.4457 8.146 26.2082C8.146 26.49 8.03405 26.7602 7.8348 26.9595C7.63554 27.1587 7.36529 27.2707 7.0835 27.2707C6.8017 27.2707 6.53145 27.1587 6.33219 26.9595C6.13294 26.7602 6.021 26.49 6.021 26.2082C6.021 19.479 13.7135 19.479 17.0002 19.479C20.2868 19.479 27.9793 19.479 27.9793 26.2082C27.9757 26.4888 27.8625 26.7569 27.6641 26.9554C27.4656 27.1539 27.1975 27.267 26.9168 27.2707Z" fill="#919196"/>
</svg>
